<?xml version="1.0" standalone="no"?>
<!DOCTYPE svg PUBLIC "-//W3C//DTD SVG 20010904//EN"
 "http://www.w3.org/TR/2001/REC-SVG-20010904/DTD/svg10.dtd">
<svg version="1.0" xmlns="http://www.w3.org/2000/svg"
 width="224.000000pt" height="224.000000pt" viewBox="0 0 224.000000 224.000000"
 preserveAspectRatio="xMidYMid meet">
<metadata>
Created by potrace 1.14, written by Peter Selinger 2001-2017
</metadata>
<g transform="translate(0.000000,224.000000) scale(0.100000,-0.100000)"
fill="#000000" stroke="none">
<path d="M676 1654 c-83 -18 -228 -75 -289 -114 -61 -38 -95 -86 -122 -172
-43 -133 -104 -297 -131 -350 -15 -29 -46 -72 -70 -95 -47 -47 -64 -100 -64
-198 0 -41 5 -60 19 -74 22 -22 91 -44 123 -39 32 4 33 26 4 39 -25 12 -25 13
-9 32 25 27 290 237 300 237 9 0 50 -169 59 -247 4 -29 12 -57 19 -63 8 -7 81
-9 201 -8 185 3 188 3 161 21 -16 10 -50 21 -78 24 -67 8 -74 22 -65 142 4 53
10 112 14 130 l8 35 129 1 c108 0 139 4 183 22 l53 21 -8 -46 c-10 -64 -7
-181 6 -215 6 -16 11 -50 11 -77 0 -80 24 -88 229 -73 101 7 106 17 20 36 -52
12 -54 14 -57 47 -2 19 2 66 8 105 13 73 9 68 114 161 15 14 29 24 30 22 2 -2
15 -25 31 -53 61 -107 180 -202 275 -222 23 -4 36 -16 51 -44 22 -43 19 -42
74 -29 22 6 79 10 128 11 48 0 87 4 87 9 0 13 -71 57 -103 66 -24 6 -77 68
-77 91 0 6 -24 35 -53 65 -64 65 -106 165 -114 275 l-6 71 59 12 c33 6 72 15
88 21 16 5 52 9 81 9 29 0 59 6 71 15 10 8 40 15 65 15 42 0 48 3 78 45 36 50
34 60 -18 109 -17 17 -31 38 -31 47 0 10 -16 30 -36 45 -20 16 -39 37 -44 48
-5 15 -17 21 -46 23 -21 1 -124 6 -229 11 -104 6 -208 16 -230 22 -74 23 -158
24 -201 2 -37 -19 -44 -19 -129 -6 -50 7 -108 14 -130 14 -22 0 -82 9 -134 20
-109 23 -208 24 -305 4z"/>
</g>
</svg>
